<?xml version="1.0" standalone="no"?>
<!DOCTYPE svg PUBLIC "-//W3C//DTD SVG 1.1//EN" "http://www.w3.org/Graphics/SVG/1.1/DTD/svg11.dtd">
<svg width="100%" height="100%" viewBox="0 0 1056 474" version="1.1" xmlns="http://www.w3.org/2000/svg" xmlns:xlink="http://www.w3.org/1999/xlink" xml:space="preserve" style="fill-rule:evenodd;clip-rule:evenodd;stroke-linejoin:round;stroke-miterlimit:1.41421;">
    <g transform="matrix(1.00438,0,0,1.00438,-2.3089,-0.338295)">
        <path d="M527.625,130.997L527.106,130.999C516.059,130.999 505.718,128.257 496.867,123.484C484.668,117.499 475.183,107.017 470.707,94.281C468.854,89.004 467.854,83.342 467.876,77.462L467.876,77.311C467.876,47.645 494.396,23.611 527.106,23.611C527.272,23.611 527.438,23.612 527.604,23.613L528.123,23.611C539.17,23.611 549.511,26.353 558.362,31.126C570.561,37.111 580.046,47.593 584.522,60.329C586.375,65.606 587.375,71.268 587.352,77.148L587.353,77.299C587.353,106.965 560.833,130.999 528.123,130.999C527.957,130.999 527.791,130.998 527.625,130.997Z" style="fill:white;"/>
    </g>
</svg>
