<svg viewBox="0 0 24 24" xmlns="http://www.w3.org/2000/svg" fill-rule="evenodd" clip-rule="evenodd" stroke-linejoin="round" stroke-miterlimit="1.414"><path d="M18.5 17c-1.004 0-1.902.428-2.54 1.104l-7.213-4.81c.16-.4.253-.835.253-1.294 0-.46-.094-.895-.254-1.295l7.214-4.81C16.598 6.57 17.496 7 18.5 7 20.434 7 22 5.434 22 3.5S20.434 0 18.5 0C16.568 0 15 1.566 15 3.5c0 .203.027.398.06.592L7.5 9.132c-.568-.396-1.255-.632-2-.632C3.566 8.5 2 10.066 2 12s1.566 3.5 3.5 3.5c.744 0 1.432-.236 2-.633l7.56 5.04c-.033.195-.06.39-.06.593 0 1.934 1.568 3.5 3.5 3.5 1.934 0 3.5-1.566 3.5-3.5S20.434 17 18.5 17z" fill-rule="nonzero"/></svg>
