<svg viewBox="0 0 1056 474" xmlns="http://www.w3.org/2000/svg" fill-rule="evenodd" clip-rule="evenodd" stroke-linejoin="round" stroke-miterlimit="1.414"><path d="M-.136 5.216h48.173v178.567h106.768v40.5H-.135V5.215zm669.738 0h48.174v90.818l85.597-90.818h60.135l-85.6 86.52 93.885 132.545H811.35l-65.962-98.484-27.61 27.92v70.566h-48.175V5.217zm248.2 145.37c0 28.768 22.7 39.967 48.476 39.967 16.87 0 42.642-4.843 42.642-26.946 0-23.314-32.825-27.255-65.044-35.732-32.516-8.478-65.348-20.892-65.348-61.47C878.528 22.2 920.868 1 960.448 1c45.712 0 87.742 19.684 87.742 69.646h-46.63c-1.53-26.042-20.25-32.702-43.26-32.702-15.342 0-33.137 6.355-33.137 24.53 0 16.65 10.432 18.77 65.35 32.7 15.957 3.938 65.047 13.93 65.047 62.98 0 39.67-31.6 69.347-91.125 69.347-48.475 0-93.887-23.62-93.273-76.912h46.64zM-.135 242.937h48.173v178.568h106.768v40.498H-.135V242.937zM719.31 437.15c-16.874 21.783-38.964 30.068-60.136 30.068-67.805 0-107.686-50.625-107.686-113.828 0-65.045 39.88-115.67 107.686-115.67 44.795 0 87.14 27.615 92.35 77.318h-46.018c-5.52-24.238-23.627-36.816-46.332-36.816-43.256 0-59.52 36.816-59.52 75.168 0 36.514 16.264 73.33 59.52 73.33 31.3 0 49.4-16.876 52.16-47.25H662.86v-35.9h92.043V462H724.22l-4.91-24.85zm62.27-194.213h48.172v219.065H781.58V242.937zm224.27 73.637c-3.07-21.78-23.926-38.352-47.86-38.352-43.256 0-59.52 36.816-59.52 75.168 0 36.514 16.264 73.33 59.52 73.33 29.455 0 46.02-20.25 49.71-49.093h46.63c-4.91 54.616-42.64 89.59-96.342 89.59-67.806 0-107.69-50.624-107.69-113.827 0-65.045 39.885-115.67 107.69-115.67 48.172 0 88.672 28.226 94.502 78.854h-46.64z" fill="#101717" fill-rule="nonzero"/><path d="M414.14 404.71c-36.72 4.772-82.822-12.472-95.64-76.99C286.75 150.438 442.39 149.838 528.06 154.036c17.38.854 34.082.846 49.06-1.136 32.753-6.54 56.46-31.925 57.27-65.158.985-40.262-18.417-79.81-85.39-80.196-20.42-.107-38.752 8.748-51.07 23.048-15.572 7.96-26.773 22.122-29.523 38.794 1.437-15.832 7.806-30.088 17.565-41.45C500.172 11.407 521.542 1 545.345.77v.002c71.99-.684 96.5 47.725 95.427 89.86 1.412 144.7-80.764 174.72-144.672 167.387 17.357 20.09 28.287 46 28.287 73.33-6.167 184.22-380.38 193.183-380.97-10.577-.21-73.308 66.82-135.688 158.85-143.658-53.347-6.21-101.657-22.353-101.657-79.418 0-60.74 66.778-92.7 115.142-96.254 133.59-9.81 137.832 126.1 53.22 122.43-93.715-4.063-55.075-107.196 12.34-69.98l-2.494 1.273c-34.068-2.64-35.26 57.712 2.31 55.768C455.58 107.077 419.258-7.17 328.038 11c-28.462 5.677-47.575 35.238-48.07 83.02-.443 42.994 6.962 78.332 42.937 82.15 11.024.86 16.054-.165 16.054-.165-.14-.006 0 3.752 0 3.752-5.367-.678-18.59.955-23.42 2.042-45.35 10.15-85.397 65.67-65.705 151.92C294.34 501.68 505.67 466.506 519.633 337.97c6.637-61.188-54.83-89.448-97.12-89.448-48.222 0-93.48 33.886-91.987 84.516 1.094 36.99 26.594 56.426 47.413 63.628.39.203.782.402 1.178.597 8.89 4.795 19.276 7.55 30.372 7.55l.52-.003.5.002c1.22 0 2.43-.034 3.63-.1z" fill="#101717"/><path d="M410.01 404.857l-.52.002c-11.096 0-21.482-2.755-30.372-7.55-12.252-6.01-21.78-16.538-26.274-29.33-1.86-5.3-2.866-10.987-2.844-16.893v-.15C350 321.14 376.636 297 409.49 297c.166 0 .333 0 .5.002l.52-.002c11.097 0 21.483 2.754 30.373 7.548 12.252 6.012 21.78 16.54 26.274 29.33 1.86 5.3 2.866 10.988 2.843 16.894v.152c0 29.796-26.636 53.935-59.49 53.935l-.5-.003z" fill="#101717" stroke="#000" id="ball1" stroke-width="1.00438"/><path d="M528.01 131.856l-.52.002c-11.096 0-21.482-2.754-30.372-7.548-12.252-6.01-21.78-16.54-26.274-29.33-1.86-5.3-2.866-10.987-2.844-16.893v-.152C468 48.14 494.637 24 527.49 24c.167 0 .333 0 .5.002l.52-.002c11.097 0 21.483 2.754 30.373 7.548 12.252 6.01 21.78 16.54 26.274 29.33 1.86 5.3 2.866 10.988 2.843 16.893v.153c0 29.796-26.635 53.935-59.49 53.935-.165 0-.332 0-.5-.002z" fill="#101717" stroke="#000" id="ball2" stroke-width="1.00438"/></svg>
