<?xml version="1.0" standalone="no"?>
<!DOCTYPE svg PUBLIC "-//W3C//DTD SVG 1.1//EN" "http://www.w3.org/Graphics/SVG/1.1/DTD/svg11.dtd">
<svg width="100%" height="100%" viewBox="0 0 1056 474" version="1.1" xmlns="http://www.w3.org/2000/svg" xmlns:xlink="http://www.w3.org/1999/xlink" xml:space="preserve" style="fill-rule:evenodd;clip-rule:evenodd;stroke-linejoin:round;stroke-miterlimit:1.41421;">
    <path d="M-0.136,5.216L48.037,5.216L48.037,183.783L154.805,183.783L154.805,224.283L-0.135,224.283L-0.135,5.215L-0.136,5.216ZM669.602,5.216L717.776,5.216L717.776,96.034L803.373,5.216L863.508,5.216L777.908,91.736L871.793,224.281L811.35,224.281L745.388,125.796L717.778,153.716L717.778,224.282L669.603,224.282L669.603,5.217L669.602,5.216ZM917.803,150.587C917.803,179.354 940.503,190.553 966.278,190.553C983.148,190.553 1008.92,185.71 1008.92,163.607C1008.92,140.293 976.095,136.352 943.876,127.875C911.36,119.397 878.528,106.983 878.528,66.405C878.528,22.2 920.868,1 960.448,1C1006.16,1 1048.19,20.684 1048.19,70.646L1001.56,70.646C1000.03,44.604 981.31,37.944 958.3,37.944C942.958,37.944 925.163,44.299 925.163,62.474C925.163,79.124 935.595,81.244 990.513,95.174C1006.47,99.112 1055.56,109.104 1055.56,158.154C1055.56,197.824 1023.96,227.501 964.435,227.501C915.96,227.501 870.548,203.879 871.162,150.588L917.802,150.588L917.803,150.587ZM-0.136,242.937L48.037,242.937L48.037,421.504L154.805,421.504L154.805,462.002L-0.135,462.002L-0.135,242.937L-0.136,242.937ZM719.31,437.15C702.436,458.933 680.346,467.218 659.174,467.218C591.369,467.218 551.488,416.593 551.488,353.39C551.488,288.345 591.368,237.72 659.174,237.72C703.969,237.72 746.314,265.335 751.524,315.038L705.506,315.038C699.986,290.8 681.879,278.222 659.174,278.222C615.918,278.222 599.654,315.038 599.654,353.39C599.654,389.904 615.918,426.72 659.174,426.72C690.474,426.72 708.574,409.844 711.334,379.47L662.86,379.47L662.86,343.57L754.903,343.57L754.903,462L724.22,462L719.31,437.15ZM781.58,242.937L829.752,242.937L829.752,462.002L781.58,462.002L781.58,242.937ZM1005.85,316.574C1002.78,294.794 981.924,278.222 957.989,278.222C914.734,278.222 898.469,315.038 898.469,353.39C898.469,389.904 914.734,426.72 957.989,426.72C987.445,426.72 1004.01,406.47 1007.7,377.627L1054.33,377.627C1049.42,432.243 1011.69,467.217 957.988,467.217C890.182,467.217 850.298,416.593 850.298,353.39C850.298,288.345 890.183,237.72 957.988,237.72C1006.16,237.72 1046.66,265.946 1052.49,316.574L1005.85,316.574Z" style="fill:rgb(16,23,23);fill-rule:nonzero;"/>
    <path d="M414.139,404.71C377.42,409.482 331.318,392.238 318.499,327.721C286.752,150.437 442.392,149.837 528.062,154.035C545.442,154.889 562.144,154.881 577.122,152.899C609.875,146.36 633.582,120.975 634.392,87.742C635.377,47.48 615.975,7.931 549.002,7.546C528.582,7.439 510.25,16.294 497.932,30.594C482.36,38.554 471.159,52.716 468.409,69.388C469.847,53.556 476.216,39.3 485.975,27.937C500.172,11.407 521.542,1 545.346,0.77L545.346,0.772C617.334,0.088 641.846,48.497 640.772,90.631C642.184,235.331 560.008,265.352 496.1,258.019C513.457,278.109 524.387,304.019 524.387,331.349C518.22,515.571 144.007,524.533 143.417,320.773C143.207,247.465 210.237,185.085 302.267,177.115C248.92,170.905 200.61,154.762 200.61,97.697C200.61,36.956 267.388,4.998 315.752,1.443C449.342,-8.367 453.584,127.543 368.972,123.873C275.257,119.81 313.897,16.677 381.312,53.893L378.818,55.166C344.75,52.527 343.558,112.878 381.128,110.934C455.58,107.077 419.258,-7.169 328.038,11.001C299.576,16.677 280.463,46.238 279.968,94.021C279.525,137.014 286.93,172.352 322.905,176.169C333.929,177.029 338.959,176.005 338.959,176.005C338.819,175.999 338.959,179.757 338.959,179.757C333.593,179.079 320.371,180.712 315.539,181.799C270.189,191.951 230.143,247.471 249.835,333.721C294.341,501.678 505.67,466.505 519.633,337.968C526.27,276.78 464.803,248.52 422.513,248.52C374.291,248.52 329.033,282.406 330.526,333.036C331.62,370.027 357.12,389.462 377.939,396.664C378.329,396.867 378.722,397.066 379.118,397.261C388.008,402.055 398.394,404.809 409.49,404.809L410.011,404.807C410.178,404.808 410.345,404.809 410.511,404.809C411.73,404.809 412.939,404.776 414.139,404.71Z" style="fill:rgb(16,23,23);"/>
    <g id="ball2" transform="matrix(1.00438,0,0,1.00438,-119.925,273.286)">
        <path d="M527.625,130.997L527.106,130.999C516.059,130.999 505.718,128.257 496.867,123.484C484.668,117.499 475.183,107.017 470.707,94.281C468.854,89.004 467.854,83.342 467.876,77.462L467.876,77.311C467.876,47.645 494.396,23.611 527.106,23.611C527.272,23.611 527.438,23.612 527.604,23.613L528.123,23.611C539.17,23.611 549.511,26.353 558.362,31.126C570.561,37.111 580.046,47.593 584.522,60.329C586.375,65.606 587.375,71.268 587.352,77.148L587.353,77.299C587.353,106.965 560.833,130.999 528.123,130.999C527.957,130.999 527.791,130.998 527.625,130.997Z" style="fill:rgb(16,23,23);stroke-width:1px;stroke:black;"/>
    </g>
    <g id="ball1" transform="matrix(1.00438,0,0,1.00438,-1.92494,0.285584)">
        <path d="M527.625,130.997L527.106,130.999C516.059,130.999 505.718,128.257 496.867,123.484C484.668,117.499 475.183,107.017 470.707,94.281C468.854,89.004 467.854,83.342 467.876,77.462L467.876,77.311C467.876,47.645 494.396,23.611 527.106,23.611C527.272,23.611 527.438,23.612 527.604,23.613L528.123,23.611C539.17,23.611 549.511,26.353 558.362,31.126C570.561,37.111 580.046,47.593 584.522,60.329C586.375,65.606 587.375,71.268 587.352,77.148L587.353,77.299C587.353,106.965 560.833,130.999 528.123,130.999C527.957,130.999 527.791,130.998 527.625,130.997Z" style="fill:rgb(16,23,23);stroke-width:1px;stroke:black;"/>
    </g>
</svg>
