<svg xmlns="http://www.w3.org/2000/svg" width="1056" height="473.515" viewBox="0 0 1056 473.515"><path fill="#101717" d="M-.136 5.216h48.173v178.567h106.768v40.5H-.135V5.215zM669.602 5.216h48.174v90.818l85.597-90.818h60.135l-85.6 86.52 93.885 132.545H811.35l-65.962-98.485-27.61 27.92v70.566h-48.175V5.217zM917.803 150.587c0 28.767 22.7 39.966 48.475 39.966 16.87 0 42.645-4.843 42.645-26.946 0-23.314-32.828-27.255-65.047-35.732-32.516-8.478-65.348-20.892-65.348-61.47C878.528 22.2 920.868 1 960.448 1c45.71 0 87.747 19.684 87.747 69.646h-46.635c-1.533-26.042-20.25-32.702-43.26-32.702-15.342 0-33.137 6.355-33.137 24.53 0 16.65 10.432 18.77 65.35 32.7 15.953 3.938 65.045 13.93 65.045 62.98 0 39.67-31.6 69.347-91.123 69.347-48.475 0-93.887-23.622-93.273-76.913h46.64zM-.136 242.937h48.173v178.567h106.768v40.498H-.135V242.937zM719.31 437.15c-16.874 21.783-38.964 30.068-60.136 30.068-67.805 0-107.686-50.625-107.686-113.828 0-65.045 39.88-115.67 107.686-115.67 44.795 0 87.14 27.615 92.35 77.318h-46.018c-5.52-24.238-23.627-36.816-46.332-36.816-43.256 0-59.52 36.816-59.52 75.168 0 36.514 16.264 73.33 59.52 73.33 31.3 0 49.4-16.876 52.16-47.25H662.86V343.57h92.043v118.43H724.22l-4.91-24.85zM781.58 242.937h48.172v219.065H781.58V242.937zM1005.854 316.574c-3.07-21.78-23.93-38.352-47.865-38.352-43.255 0-59.52 36.816-59.52 75.168 0 36.514 16.265 73.33 59.52 73.33 29.456 0 46.026-20.25 49.708-49.093h46.635c-4.91 54.616-42.646 89.59-96.344 89.59-67.806 0-107.69-50.624-107.69-113.827 0-65.045 39.885-115.67 107.69-115.67 48.175 0 88.675 28.226 94.5 78.854h-46.636z"/><path fill="#101717" d="M545.346.77c-40.935.395-74.675 30.89-77.107 70.858-.218 1.79-.346 3.61-.36 5.456-.067 6.016.935 11.807 2.828 17.197 5.357 15.244 17.89 27.258 33.664 32.198 7.274 2.888 15.3 4.52 23.752 4.52 32.71 0 59.23-24.034 59.23-53.7 0-29.65-26.52-53.688-59.23-53.688-11.42 0-22.05 2.98-31.098 8.058 12.316-14.93 31.05-24.233 51.977-24.123 66.973.385 86.375 39.934 85.39 80.196-.81 33.233-24.517 58.618-57.27 65.157-14.978 1.982-31.68 1.99-49.06 1.136-85.67-4.198-241.31-3.598-209.563 173.686 14.564 73.3 72.09 85.58 110.007 73.88 23.452-7.145 40.367-27.198 40.367-50.864 0-28.733-24.917-52.128-56.222-53.556l-.433-.02c-.858-.033-1.708-.125-2.574-.125-32.71 0-59.226 24.044-59.226 53.7 0 20.114 12.59 36.31 30.278 46.82-21.25-6.394-49.027-25.878-50.17-64.52-1.493-50.63 43.765-84.516 91.987-84.516 42.29 0 103.757 28.26 97.12 89.448-13.963 128.537-225.292 163.71-269.798-4.247-19.692-86.25 20.354-141.77 65.704-151.922 4.832-1.087 18.054-2.72 23.42-2.042 0 0-.14-3.758 0-3.752 0 0-5.03 1.024-16.054.164-35.975-3.817-43.38-39.155-42.937-82.148.495-47.783 19.608-77.344 48.07-83.02 91.22-18.17 127.542 96.076 53.09 99.933-37.57 1.944-36.378-58.407-2.31-55.768l2.494-1.273c-67.415-37.216-106.055 65.917-12.34 69.98 84.612 3.67 80.37-132.24-53.22-122.43C267.388 4.998 200.61 36.956 200.61 97.697c0 57.065 48.31 73.208 101.657 79.418-92.03 7.97-159.06 70.35-158.85 143.658.59 203.76 374.803 194.798 380.97 10.576 0-27.33-10.93-53.24-28.287-73.33 63.908 7.333 146.084-22.688 144.672-167.388C641.846 48.497 617.334.088 545.346.772z"/></svg>